<svg xmlns="http://www.w3.org/2000/svg" version="1.1" xmlns:xlink="http://www.w3.org/1999/xlink" xmlns:svgjs="http://svgjs.dev/svgjs" width="1000" height="1000" viewBox="0 0 1000 1000"><rect width="1000" height="1000" fill="#ffffff"></rect><g transform="matrix(0.7,0,0,0.7,149.575762481935,423.344061619645)"><svg viewBox="0 0 396 87" data-background-color="#ffffff" preserveAspectRatio="xMidYMid meet" height="219" width="1000" xmlns="http://www.w3.org/2000/svg" xmlns:xlink="http://www.w3.org/1999/xlink"><defs></defs><g id="tight-bounds" transform="matrix(1,0,0,1,0.24000277549470184,0.0033701180097125416)"><svg viewBox="0 0 395.52 86.99325321927914" height="86.99325321927914" width="395.52"><g><svg viewBox="0 0 537.7052255251035 118.26640079246292" height="86.99325321927914" width="395.52"><g transform="matrix(1,0,0,1,142.18522552510348,16.345066969146473)"><svg viewBox="0 0 395.52 85.57626685416997" height="85.57626685416997" width="395.52"><g><svg viewBox="0 0 395.52 85.57626685416997" height="85.57626685416997" width="395.52"><g><svg viewBox="0 0 395.52 85.57626685416997" height="85.57626685416997" width="395.52"><rect width="395.52" height="85.57626685416997" x="0" y="0" opacity="1" fill="#374151" data-fill-palette-color="tertiary"></rect><g transform="matrix(1,0,0,1,23.607599999999998,23.607599999999994)"><svg width="348.3048" viewBox="3.094444513320923 -33.93000030517578 331.6699523925781 36.53333282470703" height="38.361066854169984" data-palette-color="#f0ebeb"><path d="M14.9-23.15L14.9-22.7Q14.95-21.85 15.3-18.75L15.3-18.75Q15.85-13.25 15.95-12.05L15.95-12.05 16.45-9.7 16.85-7.35Q17.95-9.55 17.9-9.9L17.9-9.9Q17.9-10.25 18.75-12.5L18.75-12.5Q19.95-14.65 20.3-16.3L20.3-16.3Q20.35-16.6 20.85-17.75L20.85-17.75Q20.7-17.9 21.1-18.7L21.1-18.7Q21.5-19.55 21.73-20.5 21.95-21.45 21.98-21.5 22-21.55 22.05-21.6L22.05-21.6Q22.2-21.75 22.45-22.5L22.45-22.5Q22.6-23.2 22.6-23.6L22.6-23.6 22.6-25.15Q22.6-25.3 22.85-26.2L22.85-26.2 22.8-27.35Q22.8-28.55 23.95-30.45L23.95-30.45 24.95-31.3Q24.95-31.75 25.73-31.85 26.5-31.95 27.1-31.75 27.7-31.55 27.9-31.55L27.9-31.55Q28.1-31.35 29.35-31.05L29.35-31.05Q29.95-30.85 30.13-30.3 30.3-29.75 30.3-28.8L30.3-28.8 29.95-24.9Q29.95-24.55 29.65-20.05L29.65-20.05 29.7-18.45Q29.65-18.35 29.65-16.75L29.65-16.75 29.65-14.15Q29.65-13.4 29.65-13.2L29.65-13.2 29.8-11.3Q29.6-11.3 30.4-6.85L30.4-6.85Q30.4-6.15 30.93-3.83 31.45-1.5 31.2 0.05L31.2 0.05Q31.2 0.85 29.75 1.5L29.75 1.5Q28.65 1.3 28.4 0.85L28.4 0.85Q27.95 0.6 27.85 0.45L27.85 0.45 27.45-0.05Q26.65-0.7 26.15-1.6L26.15-1.6Q25.8-1.95 25.65-2.6L25.65-2.6Q25.15-3.3 25.05-4.35 24.95-5.4 24.68-5.83 24.4-6.25 24.25-6.65L24.25-6.65Q23.7-7.2 23.55-8.63 23.4-10.05 23.25-11.1L23.25-11.1Q23.25-11.7 23.3-12L23.3-12Q23.15-12.4 23.13-12.6 23.1-12.8 23.05-13.05L23.05-13.05 22.85-12.1Q22.7-11.85 22.2-10.15L22.2-10.15 21.15-6.9 20.25-3.75Q20-3.6 19.65-2.55L19.65-2.55Q19.2-1.4 19.13-1.3 19.05-1.2 18.95-1L18.95-1Q18.55-0.2 18.05 0.3L18.05 0.3Q16.7 1.55 15.28 1.03 13.85 0.5 13.2-1L13.2-1Q12.85-1.85 12.65-2.1L12.65-2.1Q12.6-2.5 12.1-3.5L12.1-3.5Q11.75-4.45 11.55-5.9L11.55-5.9Q11.3-6.35 11.2-7.45L11.2-7.45Q10.95-7.9 10.85-8.75 10.75-9.6 10.55-10.4L10.55-10.4Q10.3-11.25 10.2-12.45L10.2-12.45Q10.1-13.35 9.45-15.75L9.45-15.75Q9.3-15.9 9.05-16.75L9.05-16.75Q8.95-15.95 8.95-15.88 8.95-15.8 8.55-13.4L8.55-13.4Q8.65-13.3 8.5-11.9L8.5-11.9Q8.2-10.95 8.15-9.9L8.15-9.9Q7.75-7.2 7.8-5.85L7.8-5.85Q7.95-5.4 7.83-4.78 7.7-4.15 7.63-3.53 7.55-2.9 7.4-2.4L7.4-2.4 7.4-2.05Q7.25-0.5 7.35-0.3L7.35-0.3Q7.35 0.25 6.93 1.05 6.5 1.85 5.6 1.65L5.6 1.65Q4 1.25 3.75 1.05L3.75 1.05Q3.2 0.15 3.2-0.55L3.2-0.55 3.2-2.95 3.3-3.85Q3.25-4 3.35-5L3.35-5Q3.3-5.05 3.3-5.83 3.3-6.6 3.15-7L3.15-7 3.15-7.5Q3.05-9.2 3.13-9.47 3.2-9.75 3.1-10.7L3.1-10.7Q3.3-10.7 3.35-11.48 3.4-12.25 3.5-13.15L3.5-13.15 3.85-13.3Q3.75-13.35 3.8-14.7L3.8-14.7Q3.85-15.05 4.05-16.5 4.25-17.95 4.23-18.48 4.2-19 4.75-20.15L4.75-20.15Q5.8-23.3 5.88-24.15 5.95-25 6.15-25.65L6.15-25.65Q6.35-27.3 7.1-28.4L7.1-28.4Q7.45-29.5 8.4-29.7L8.4-29.7 9-30.15 9.05-30.15Q10-30.85 12.45-30.35L12.45-30.35Q14.55-29.4 14.75-28L14.75-28Q14.55-27.3 14.9-23.15L14.9-23.15ZM41.85-11.35L41.85-11.35 42-6.85Q42.8-4 44.35-2.85L44.35-2.85Q44.6-2.6 45.5-2.3L45.5-2.3 46.75-2Q47-2 47.3-2.2L47.3-2.2Q47.65-2.3 47.8-2.45L47.8-2.45Q48.15-2.9 48.5-3.25 48.85-3.6 48.8-3.6L48.8-3.6Q49-3.8 48.95-4.25L48.95-4.25Q49.1-4.4 49.35-4.9L49.35-4.9Q49.9-7.7 50.45-8.5L50.45-8.5Q50.65-10.7 50.65-11.3L50.65-11.3Q50.65-13.4 49.55-16.45L49.55-16.45Q48.95-17.15 48.95-20.9L48.95-20.9Q48.65-21.65 48.6-22.28 48.55-22.9 48.27-23.63 48-24.35 47.85-24.6 47.7-24.85 47.67-25.08 47.65-25.3 47.45-25.65L47.45-25.65Q46.65-26.85 45-24.35L45-24.35 44.15-22.85Q44.15-22.75 43.65-21L43.65-21Q42.85-18.2 42.87-17.88 42.9-17.55 42.3-15.8L42.3-15.8Q42.25-15.65 42.27-15.1 42.3-14.55 42.07-13.58 41.85-12.6 41.85-11.35ZM36.15-15L36.15-15 36.5-18.7Q36.5-19 36.72-19.6 36.95-20.2 37-20.35L37-20.35Q37-20.45 37.1-20.7L37.1-20.7Q37.1-22.05 37.85-23.05L37.85-23.05Q39-25.7 39.6-27 40.2-28.3 40.9-29.15L40.9-29.15Q40.95-29.4 41.95-29.95L41.95-29.95Q44-31.05 45.8-31.05 47.6-31.05 49.25-30.5L49.25-30.5Q49.8-30.4 50.72-29.75 51.65-29.1 51.8-29.05L51.8-29.05Q52.65-28.55 53.57-26.93 54.5-25.3 54.57-24.55 54.65-23.8 55.17-22.18 55.7-20.55 55.7-19.78 55.7-19 55.97-17.45 56.25-15.9 56.2-14.95L56.2-14.95Q55.9-7.9 54.4-4.75L54.4-4.75Q54.1-2.55 53.25-1.95L53.25-1.95 53.15-1.25Q53.1-0.65 52.57 0.1 52.05 0.85 51.25 1.25L51.25 1.25Q51.1 1.4 49.25 1.7L49.25 1.7Q46.6 2.2 45.75 2.2L45.75 2.2Q44.65 2.55 42.97 2.08 41.3 1.6 41.05 1.58 40.8 1.55 39.97 1.03 39.15 0.5 38.9 0.2L38.9 0.2Q38.1-0.4 37.95-0.75L37.95-0.75 37.25-2.15Q36.6-2.8 36.35-4.03 36.1-5.25 35.85-5.6L35.85-5.6Q35.6-6.15 35.4-6.75L35.4-6.75Q35.45-7.1 35.45-8L35.45-8 35.45-8.5Q35.25-9.25 35.55-9.95L35.55-9.95Q35.6-10.3 35.62-10.83 35.65-11.35 35.75-12.35L35.75-12.35 35.75-13Q36.2-14.5 36.15-15ZM73.05-27.35L73.05-27.05Q72.95-26.15 72.95-25.2L72.95-25.2Q72.95-23.4 72.75-21.95 72.55-20.5 72.5-19.98 72.45-19.45 72.35-18.95L72.35-18.95 72.35-18.6Q72.35-17.7 71.95-16.8L71.95-16.8 71.8-14.55 71.6-9.8 71.6-7.3Q71.6-5.4 71.4-5.25L71.4-5.25 71.45-3.95 71.45-3.4 71.4-2.8Q71.4-2.6 71.3-2.6L71.3-2.6Q71.4-2 70.82-1.33 70.25-0.65 69.4-0.45L69.4-0.45 68.5-0.3Q68.3-0.3 67.95-0.28 67.6-0.25 67.35-0.35 67.1-0.45 66.85-0.6L66.85-0.6Q66.35-0.9 66.15-1.75L66.15-1.75Q66-2 65.55-4.8L65.55-4.8Q65.55-5.4 65.45-6.3L65.45-6.3 65.6-7.5 65.6-8.45Q65.6-9.35 65.8-9.7L65.8-9.7Q65.6-10 66.05-11L66.05-11Q65.7-11.45 66.1-13L66.1-13Q65.9-13.65 66.1-13.85L66.1-13.85Q66.2-14.15 66.2-15.25L66.2-15.25 66.25-15.75Q66.25-17.2 66.55-18.4L66.55-18.4Q66.45-18.55 66.55-19.2 66.65-19.85 66.7-20.75L66.7-20.75 66.7-21.1Q66.75-21.85 66.75-22.7L66.75-22.7 66.8-23.15Q66.8-23.45 66.92-24.35 67.05-25.25 67.15-26.25L67.15-26.25 67.05-26.25Q61.75-24.8 60.55-24.8L60.55-24.8 59.7-24.75Q58.95-24.75 58.15-25L58.15-25Q57.75-25.2 57.55-26.05L57.55-26.05Q57.55-27.7 58.27-28.45 59-29.2 61-29.85L61-29.85Q61.5-29.9 67.2-31.95L67.2-31.95 69.35-32.45Q69.95-32.65 71.25-32.65 72.55-32.65 73.42-32.98 74.3-33.3 75.35-33.48 76.4-33.65 77.55-33.85L77.55-33.85Q78.1-34.05 79.55-33.75L79.55-33.75Q80.1-33.75 81.3-32.6L81.3-32.6 81.6-31.9Q81.6-31.6 81.75-31.45L81.75-31.45Q81.95-30.1 81.15-29.7L81.15-29.7Q80.85-29.55 80.1-29.3L80.1-29.3Q79.1-29.3 75.1-28.3L75.1-28.3Q74.9-28.3 73.1-28L73.1-28 73.05-27.35ZM99.34-27.5Q99.49-26.85 99.09-26.63 98.69-26.4 98.27-26.4 97.84-26.4 96.04-26.3L96.04-26.3Q94.89-26.05 93.74-25.65L93.74-25.65 93.69-25.65Q93.69-24.75 93.19-23L93.19-23Q93.19-22.4 92.94-21.05L92.94-21.05Q92.94-20.65 92.79-20.25 92.64-19.85 92.64-19L92.64-19Q92.29-16.95 92.34-16.75 92.39-16.55 92.34-16.2 92.29-15.85 92.14-15.15 91.99-14.45 91.99-13.5 91.99-12.55 91.74-11.8L91.74-11.8 91.74-11.25Q91.84-9.45 91.62-8.7 91.39-7.95 91.39-7.43 91.39-6.9 91.14-5.8 90.89-4.7 90.99-3.2L90.99-3.2 91.29-3.2Q92.54-3.3 92.62-3.28 92.69-3.25 93.29-3.4L93.29-3.4 94.09-3.35 94.59-3.35Q94.74-3.35 95.24-2.98 95.74-2.6 95.94-2.25L95.94-2.25Q96.29-1.9 96.17-1.58 96.04-1.25 95.04-0.5L95.04-0.5 94.09-0.2Q93.94-0.05 93.39 0.15 92.84 0.35 92.44 0.35L92.44 0.35Q91.29 0.6 91.09 1.2L91.09 1.2Q90.89 1.6 88.69 1.5L88.69 1.5 86.99 1.5 86.04 1.8Q84.79 2.3 83.84 2.05 82.89 1.8 82.57 1.68 82.24 1.55 81.79 1.18 81.34 0.8 81.42 0.33 81.49-0.15 81.74-1.05L81.74-1.05Q82.59-1.75 82.94-1.95L82.94-1.95Q85.34-2.7 85.99-2.95L85.99-2.95Q85.99-4.6 85.89-4.9L85.89-4.9Q86.04-4.95 86.24-7.05L86.24-7.05Q86.29-7.25 85.99-8L85.99-8 85.99-8.3Q86.14-9.7 85.94-10.85L85.94-10.85Q85.94-10.9 86.14-12.6L86.14-12.6Q86.39-12.9 86.14-14.2L86.14-14.2Q86.34-15.15 86.49-15.7L86.49-15.7 86.54-16.4Q86.54-16.7 86.84-18.2L86.84-18.2 86.84-18.7 86.94-19.1Q87.84-22.8 88.14-24.5L88.14-24.5Q87.74-24.4 87.64-24.4L87.64-24.4 85.99-24.15Q84.09-23.65 82.64-25L82.64-25Q81.39-26.7 82.59-27.9L82.59-27.9Q83.34-28.55 84.89-28.8L84.89-28.8Q86.24-29.25 86.64-29.45L86.64-29.45Q87.14-29.45 88.99-30.55L88.99-30.55Q90.84-30.8 91.14-30.8L91.14-30.8 93.49-31.1Q93.94-31.15 94.69-31.03 95.44-30.9 95.59-30.7L95.59-30.7Q96.24-30.55 97.19-30.1L97.19-30.1 98.39-29Q99.09-28 99.34-27.5L99.34-27.5ZM108.64-22.9L108.64-22.9 109.09-20.5 109.09-19.35Q109.54-18 109.74-16.6L109.74-16.6Q110.54-12 110.64-11.3 110.74-10.6 110.87-10 110.99-9.4 110.89-9.3L110.89-9.3Q110.94-8.9 110.97-8.63 110.99-8.35 111.07-8.18 111.14-8 111.22-7.95 111.29-7.9 111.39-8L111.39-8Q111.69-8.2 112.24-10.05L112.24-10.05Q112.84-11.3 113.04-12.35L113.04-12.35Q113.14-12.95 113.49-14.25L113.49-14.25Q113.84-15.3 114.14-16.25L114.14-16.25Q114.49-17.1 114.64-18.07 114.79-19.05 114.82-19.18 114.84-19.3 114.99-19.65L114.99-19.65Q115.49-21.1 115.49-21.88 115.49-22.65 115.69-23.55L115.69-23.55Q115.69-24.8 116.39-26.9L116.39-26.9Q116.39-27 116.69-28.13 116.99-29.25 117.44-30.2L117.44-30.2Q118.24-32.3 120.34-33.05L120.34-33.05Q121.19-33.3 122.22-33.3 123.24-33.3 123.62-33.05 123.99-32.8 124.04-31.95L124.04-31.95Q123.94-31.65 123.89-31L123.89-31 122.34-26.2 121.69-24.55 121.09-23.35Q121.09-23.25 120.84-22.75L120.84-22.75 120.34-21.1Q120.24-20.35 120.09-20.1L120.09-20.1 119.24-17.3Q119.04-17.1 118.89-16.1L118.89-16.1Q118.49-14.75 118.19-14.2L118.19-14.2Q117.84-13.2 117.84-12.8 117.84-12.4 117.59-11.68 117.34-10.95 117.27-10.88 117.19-10.8 117.04-10.2 116.89-9.6 116.89-9L116.89-9Q116.69-8.9 116.69-8.1L116.69-8.1Q116.39-7.45 116.29-6.25L116.29-6.25Q116.04-5.8 115.99-4.95L115.99-4.95Q115.49-3.05 114.69-1.98 113.89-0.9 112.39-0.65L112.39-0.65Q110.89-0.3 110.29-0.65L110.29-0.65Q110.09-0.6 109.64-0.75L109.64-0.75Q109.39-0.75 109.29-0.85L109.29-0.85Q108.94-0.85 108.19-1.3L108.19-1.3Q107.64-1.5 107.22-1.98 106.79-2.45 106.29-3.1L106.29-3.1Q106.19-3.35 105.69-4.1L105.69-4.1Q105.54-5.4 105.29-5.65L105.29-5.65Q105.19-5.9 105.19-6L105.19-6 104.89-7.2Q104.94-7.15 104.99-7L104.99-7Q104.89-8.45 104.94-9.4L104.94-9.4Q104.74-9.9 104.94-10.9L104.94-10.9Q104.94-11.7 104.79-12.3L104.79-12.3Q104.24-13.7 104.22-14.25 104.19-14.8 104.04-16L104.04-16Q104.04-17.3 103.94-18.25L103.94-18.25 103.09-23.05Q102.79-24.65 102.84-24.93 102.89-25.2 102.87-25.28 102.84-25.35 102.82-25.6 102.79-25.85 102.74-26.25L102.74-26.25Q102.39-27.05 102.34-27.55L102.34-27.55Q100.54-31.95 103.04-32.45L103.04-32.45Q103.34-32.55 104.37-32.55 105.39-32.55 105.69-32.48 105.99-32.4 106.44-32.1L106.44-32.1Q107.59-31.4 108.09-26.5L108.09-26.5Q108.49-23.9 108.57-23.58 108.64-23.25 108.64-22.9ZM132.59-11.35L131.74-11.65 131.74-9.65Q131.74-6.55 132.09-6.2L132.09-6.2Q132.04-6.15 132.34-5L132.34-5Q132.34-4.6 132.74-3.75L132.74-3.75Q132.74-3.5 134.14-2.55L134.14-2.55Q134.74-2.55 137.09-3.55L137.09-3.55 140.64-4.9Q141.29-5.1 141.86-4.73 142.44-4.35 142.56-3.43 142.69-2.5 142.51-2.1 142.34-1.7 141.66-1.1 140.99-0.5 140.79-0.25 140.59 0 140.04 0.28 139.49 0.55 138.81 0.85 138.14 1.15 137.89 1.3L137.89 1.3Q135.94 2.2 134.89 2L134.89 2Q134.24 2 133.56 1.75 132.89 1.5 132.81 1.53 132.74 1.55 132.41 1.48 132.09 1.4 131.79 1.33 131.49 1.25 130.24 1L130.24 1Q130.24 0.8 129.54 0.6L129.54 0.6 128.19-0.5Q127.84-0.7 127.44-1.75L127.44-1.75 126.99-2.5Q126.79-2.65 126.44-3.65L126.44-3.65Q126.24-3.9 126.19-4.55L126.19-4.55Q125.94-5.1 125.94-6.1L125.94-6.1Q125.74-6.35 125.49-8L125.49-8Q125.14-10.15 125.44-11.85L125.44-11.85Q125.44-12.8 125.79-13.7L125.79-13.7Q125.84-14.1 125.89-14.5L125.89-14.5Q126.14-15.8 126.24-16.5L126.24-16.5Q126.04-17.2 126.89-19.85L126.89-19.85Q126.89-20.25 127.21-21.03 127.54-21.8 127.59-22.65L127.59-22.65 127.99-23.6Q127.99-24 128.74-26.55L128.74-26.55Q129.14-27.5 129.14-27.65L129.14-27.65 130.39-30.3 130.99-31.1Q131.34-31.45 132.04-31.7L132.04-31.7Q132.34-31.95 133.64-31.65L133.64-31.65Q134.44-31.35 134.74-31.05L134.74-31.05Q135.09-30.9 135.59-30.9L135.59-30.9 139.44-31.15Q140.89-31.05 141.39-30.83 141.89-30.6 142.36-30.05 142.84-29.5 142.71-28.95 142.59-28.4 142.29-28.1L142.29-28.1Q141.64-27.55 139.89-26.8L139.89-26.8Q136.84-25.15 136.59-25.05L136.59-25.05 135.39-24.5Q134.64-24 134.44-23.45L134.44-23.45Q132.89-17.85 132.76-17.23 132.64-16.6 132.61-16.48 132.59-16.35 132.59-16.3L132.59-16.3 133.59-16.4Q135.79-17.1 136.19-16.85L136.19-16.85Q136.39-16.85 136.74-17L136.74-17Q138.59-17.65 139.99-17.55L139.99-17.55Q140.24-17.7 140.54-17.35 140.84-17 140.99-16.5L140.99-16.5Q141.29-15.25 140.24-14.55L140.24-14.55Q138.14-13.15 135.24-12.3L135.24-12.3Q134.29-11.55 132.59-11.35L132.59-11.35ZM162.48-10.3L162.48-10.3Q162.43-10.1 162.43-9.5 162.43-8.9 162.33-8.45 162.23-8 162.33-7.35L162.33-7.35Q162.53-6.45 163.18-5.15L163.18-5.15Q163.18-5 163.93-4.35L163.93-4.35Q164.13-4.3 164.36-4.25 164.58-4.2 164.73-4.13 164.88-4.05 165.43-4.17 165.98-4.3 166.16-4.42 166.33-4.55 166.88-5L166.88-5Q167.43-5.7 168.08-5.95L168.08-5.95Q169.03-6.85 169.88-7.5L169.88-7.5Q170.68-7.65 170.93-7.6 171.18-7.55 171.48-7.2L171.48-7.2Q172.18-6.4 171.88-5.15L171.88-5.15Q171.48-3.75 170.38-2.5L170.38-2.5Q170.18-2.15 169.63-1.85L169.63-1.85Q169.53-1.75 169.33-1.4L169.33-1.4 168.38-0.45Q168.08-0.45 167.98-0.15 167.88 0.15 166.68 0.6L166.68 0.6Q165.18 0.6 164.03 0.3L164.03 0.3Q161.53-0.25 160.48-1.05L160.48-1.05 159.53-1.65Q159.43-1.85 158.58-2.2L158.58-2.2 157.93-3 157.18-3.8 156.68-4.7Q156.53-4.9 156.48-5.48 156.43-6.05 156.33-6.45L156.33-6.45Q156.38-6.6 156.38-7.55L156.38-7.55Q156.48-8 156.48-8.65L156.48-8.65Q156.58-8.8 156.48-9.7L156.48-9.7 156.53-10.15 156.53-10.85Q156.53-11.65 156.73-12.55 156.93-13.45 157.13-14.45L157.13-14.45Q157.13-15.1 157.28-15.6L157.28-15.6Q157.13-16.05 157.33-17.8L157.33-17.8 157.33-18.1Q157.33-18.6 157.38-18.9L157.38-18.9 157.38-19.25 157.48-22.3Q157.48-22.45 157.73-23.6L157.73-23.6Q157.73-24.2 158.18-25.55L158.18-25.55Q158.48-26.05 158.48-26.4L158.48-26.4Q158.48-26.65 158.63-27.4L158.63-27.4Q158.88-27.7 158.98-28.75L158.98-28.75Q159.03-28.75 159.23-29.85L159.23-29.85Q159.23-30.45 159.78-31.2L159.78-31.2Q159.88-31.5 160.68-31.9L160.68-31.9 160.73-31.9Q160.93-32 162.23-32.15L162.23-32.15Q162.83-32.15 163.78-31.75L163.78-31.75Q164.03-31.75 165.18-31L165.18-31Q165.78-30.3 164.83-27.8L164.83-27.8Q164.83-27.35 164.43-26.45L164.43-26.45Q164.43-26 164.28-25.4L164.28-25.4Q164.28-24.95 163.66-21.83 163.03-18.7 162.48-10.3ZM191.28-27.5Q191.43-26.85 191.03-26.63 190.63-26.4 190.21-26.4 189.78-26.4 187.98-26.3L187.98-26.3Q186.83-26.05 185.68-25.65L185.68-25.65 185.63-25.65Q185.63-24.75 185.13-23L185.13-23Q185.13-22.4 184.88-21.05L184.88-21.05Q184.88-20.65 184.73-20.25 184.58-19.85 184.58-19L184.58-19Q184.23-16.95 184.28-16.75 184.33-16.55 184.28-16.2 184.23-15.85 184.08-15.15 183.93-14.45 183.93-13.5 183.93-12.55 183.68-11.8L183.68-11.8 183.68-11.25Q183.78-9.45 183.56-8.7 183.33-7.95 183.33-7.43 183.33-6.9 183.08-5.8 182.83-4.7 182.93-3.2L182.93-3.2 183.23-3.2Q184.48-3.3 184.56-3.28 184.63-3.25 185.23-3.4L185.23-3.4 186.03-3.35 186.53-3.35Q186.68-3.35 187.18-2.98 187.68-2.6 187.88-2.25L187.88-2.25Q188.23-1.9 188.11-1.58 187.98-1.25 186.98-0.5L186.98-0.5 186.03-0.2Q185.88-0.05 185.33 0.15 184.78 0.35 184.38 0.35L184.38 0.35Q183.23 0.6 183.03 1.2L183.03 1.2Q182.83 1.6 180.63 1.5L180.63 1.5 178.93 1.5 177.98 1.8Q176.73 2.3 175.78 2.05 174.83 1.8 174.5 1.68 174.18 1.55 173.73 1.18 173.28 0.8 173.36 0.33 173.43-0.15 173.68-1.05L173.68-1.05Q174.53-1.75 174.88-1.95L174.88-1.95Q177.28-2.7 177.93-2.95L177.93-2.95Q177.93-4.6 177.83-4.9L177.83-4.9Q177.98-4.95 178.18-7.05L178.18-7.05Q178.23-7.25 177.93-8L177.93-8 177.93-8.3Q178.08-9.7 177.88-10.85L177.88-10.85Q177.88-10.9 178.08-12.6L178.08-12.6Q178.33-12.9 178.08-14.2L178.08-14.2Q178.28-15.15 178.43-15.7L178.43-15.7 178.48-16.4Q178.48-16.7 178.78-18.2L178.78-18.2 178.78-18.7 178.88-19.1Q179.78-22.8 180.08-24.5L180.08-24.5Q179.68-24.4 179.58-24.4L179.58-24.4 177.93-24.15Q176.03-23.65 174.58-25L174.58-25Q173.33-26.7 174.53-27.9L174.53-27.9Q175.28-28.55 176.83-28.8L176.83-28.8Q178.18-29.25 178.58-29.45L178.58-29.45Q179.08-29.45 180.93-30.55L180.93-30.55Q182.78-30.8 183.08-30.8L183.08-30.8 185.43-31.1Q185.88-31.15 186.63-31.03 187.38-30.9 187.53-30.7L187.53-30.7Q188.18-30.55 189.13-30.1L189.13-30.1 190.33-29Q191.03-28 191.28-27.5L191.28-27.5ZM203.63-25.5L203.63-25 203.28-19.05Q203.53-19.2 205.28-19.28 207.03-19.35 207.58-19.25L207.58-19.25 209.43-18.4Q210.13-17.95 211.08-16.85L211.08-16.85Q211.68-15.55 209.63-14.85L209.63-14.85Q207.68-14.55 207.13-14.55L207.13-14.55 203.18-14.35 203.18-12.05Q203.48-5.9 203.48-4.9L203.48-4.9Q203.73-3.4 203.73-3.1L203.73-3.1 203.73-2Q203.73-1.05 203.48-0.8L203.48-0.8Q202.88-0.05 202.73 0L202.73 0Q200.68 0.8 198.38-1L198.38-1 197.58-2.05Q197.58-2.25 197.28-3.55L197.28-3.55Q197.33-3.7 196.88-5.2L196.88-5.2Q196.88-5.5 197-5.95 197.13-6.4 197.13-6.95 197.13-7.5 196.88-8.1L196.88-8.1Q196.88-8.75 196.78-9.25L196.78-9.25 196.78-9.75Q196.88-10.3 196.9-10.93 196.93-11.55 197.05-12.18 197.18-12.8 197.08-13.35L197.08-13.35 197.08-13.5Q196.38-13.85 196.05-13.8 195.73-13.75 195.35-14.13 194.98-14.5 194.93-14.85 194.88-15.2 195.98-16.25L195.98-16.25Q196.08-16.45 197.18-16.95L197.18-16.95 197.18-17.95 197.43-20.75Q197.28-22.1 197.43-22.8 197.58-23.5 197.48-23.95L197.48-23.95 197.78-25.05Q195.28-24.6 194.18-24.85L194.18-24.85Q193.23-25.3 193.18-26.3L193.18-26.3Q193.13-26.35 193.43-27.75L193.43-27.75Q193.28-28.45 194.63-29.5L194.63-29.5Q195.73-30 196.73-30.2L196.73-30.2Q198.63-30.85 200.13-31.05L200.13-31.05Q203.08-31.55 204.88-31.9L204.88-31.9 207.23-32.75Q208.03-33.2 208.35-33.15 208.68-33.1 209.33-33.35L209.33-33.35Q209.43-33.6 210.48-33.8L210.48-33.8Q212.63-34.2 212.98-33.35L212.98-33.35Q213.43-33.25 214.18-32.65L214.18-32.65Q214.33-32.6 215.33-30.7L215.33-30.7Q215.48-30.3 215.18-29.88 214.88-29.45 214.23-29.4L214.23-29.4 212.88-28.9Q212.28-28.85 211.18-28.35L211.18-28.35Q209.13-27.8 208.88-27.8 208.63-27.8 208.38-27.75L208.38-27.75Q207.63-27.6 206.78-27.35 205.93-27.1 205.33-27.1L205.33-27.1Q203.93-26.8 203.78-26.4L203.78-26.4Q203.73-26.3 203.73-26.1L203.73-26.1 203.63-25.5ZM223.83-11.35L222.98-11.65 222.98-9.65Q222.98-6.55 223.33-6.2L223.33-6.2Q223.28-6.15 223.58-5L223.58-5Q223.58-4.6 223.98-3.75L223.98-3.75Q223.98-3.5 225.38-2.55L225.38-2.55Q225.98-2.55 228.33-3.55L228.33-3.55 231.88-4.9Q232.53-5.1 233.1-4.73 233.68-4.35 233.8-3.43 233.93-2.5 233.75-2.1 233.58-1.7 232.9-1.1 232.23-0.5 232.03-0.25 231.83 0 231.28 0.28 230.73 0.55 230.05 0.85 229.38 1.15 229.13 1.3L229.13 1.3Q227.18 2.2 226.13 2L226.13 2Q225.48 2 224.8 1.75 224.13 1.5 224.05 1.53 223.98 1.55 223.65 1.48 223.33 1.4 223.03 1.33 222.73 1.25 221.48 1L221.48 1Q221.48 0.8 220.78 0.6L220.78 0.6 219.43-0.5Q219.08-0.7 218.68-1.75L218.68-1.75 218.23-2.5Q218.03-2.65 217.68-3.65L217.68-3.65Q217.48-3.9 217.43-4.55L217.43-4.55Q217.18-5.1 217.18-6.1L217.18-6.1Q216.98-6.35 216.73-8L216.73-8Q216.38-10.15 216.68-11.85L216.68-11.85Q216.68-12.8 217.03-13.7L217.03-13.7Q217.08-14.1 217.13-14.5L217.13-14.5Q217.38-15.8 217.48-16.5L217.48-16.5Q217.28-17.2 218.13-19.85L218.13-19.85Q218.13-20.25 218.45-21.03 218.78-21.8 218.83-22.65L218.83-22.65 219.23-23.6Q219.23-24 219.98-26.55L219.98-26.55Q220.38-27.5 220.38-27.65L220.38-27.65 221.63-30.3 222.23-31.1Q222.58-31.45 223.28-31.7L223.28-31.7Q223.58-31.95 224.88-31.65L224.88-31.65Q225.68-31.35 225.98-31.05L225.98-31.05Q226.33-30.9 226.83-30.9L226.83-30.9 230.68-31.15Q232.13-31.05 232.63-30.83 233.13-30.6 233.6-30.05 234.08-29.5 233.95-28.95 233.83-28.4 233.53-28.1L233.53-28.1Q232.88-27.55 231.13-26.8L231.13-26.8Q228.08-25.15 227.83-25.05L227.83-25.05 226.63-24.5Q225.88-24 225.68-23.45L225.68-23.45Q224.13-17.85 224-17.23 223.88-16.6 223.85-16.48 223.83-16.35 223.83-16.3L223.83-16.3 224.83-16.4Q227.03-17.1 227.43-16.85L227.43-16.85Q227.63-16.85 227.98-17L227.98-17Q229.83-17.65 231.23-17.55L231.23-17.55Q231.48-17.7 231.78-17.35 232.08-17 232.23-16.5L232.23-16.5Q232.53-15.25 231.48-14.55L231.48-14.55Q229.38-13.15 226.48-12.3L226.48-12.3Q225.53-11.55 223.83-11.35L223.83-11.35ZM254.92-30.6L254.92-30.6Q255.62-30.9 257.82-30.83 260.02-30.75 260.97-30.4L260.97-30.4 262.22-30Q263.77-28.95 263.97-28.95L263.97-28.95Q266.02-27.35 266.32-24.75L266.32-24.75Q266.62-23.65 266.42-22.75L266.42-22.75Q266.42-22.45 266.22-21.45L266.22-21.45 265.72-20.3 265.12-19.45Q264.82-19.4 264.77-19.4L264.77-19.4Q262.92-19.1 261.92-19.33 260.92-19.55 260.17-20.4L260.17-20.4Q260.02-20.7 260.02-20.95L260.02-20.95Q260.07-21.2 260.17-21.4L260.17-21.4 260.42-22.2Q261.07-23.8 260.32-24.9L260.32-24.9Q260.32-25.05 259.82-25.45 259.32-25.85 259.05-26.05 258.77-26.25 258.07-26.1L258.07-26.1Q256.87-25.6 256.02-23.05L256.02-23.05Q255.02-21.75 254.62-19.65L254.62-19.65Q254.02-15.9 254.02-15.4L254.02-15.4 253.97-14.3 253.97-13.85Q253.87-13.75 254.07-9.5L254.07-9.5Q254.12-9.25 254.27-8.8L254.27-8.8Q254.42-8.25 254.72-7L254.72-7 255.37-5.9Q255.62-5.75 256.02-5L256.02-5Q256.27-5 256.42-4.65L256.42-4.65Q256.77-4.3 256.72-4.25L256.72-4.25Q256.97-4.2 257.47-3.95L257.47-3.95Q258.82-3.25 259.82-4.25L259.82-4.25Q260.17-4.6 260.7-5.23 261.22-5.85 261.5-6.23 261.77-6.6 262.37-6.95L262.37-6.95Q264.02-8.2 265.22-6.85L265.22-6.85Q265.47-6.45 265.3-4.93 265.12-3.4 263.87-1.75L263.87-1.75Q263.77-1.45 263.22-0.78 262.67-0.1 262.07 0.3L262.07 0.3Q261.97 0.65 258.27 0.8L258.27 0.8Q258.07 0.8 257.47 0.7L257.47 0.7Q256.92 0.85 256 0.55 255.07 0.25 254.97 0.25L254.97 0.25 254.32 0.1Q253.92 0.1 253.52-0.15 253.12-0.4 252.2-1.03 251.27-1.65 250.77-2.05L250.77-2.05Q249.27-3.25 248.62-4.8L248.62-4.8Q248.42-5.15 248.37-5.78 248.32-6.4 248.17-6.7L248.17-6.7Q247.77-7.1 247.8-8 247.82-8.9 247.67-10.2L247.67-10.2Q247.67-10.8 247.72-10.9L247.72-10.9Q247.47-11.15 247.52-11.78 247.57-12.4 247.57-13.5L247.57-13.5Q247.72-13.8 247.7-15.28 247.67-16.75 247.77-17.5L247.77-17.5Q247.57-17.95 247.72-18.8L247.72-18.8 247.77-20.3Q247.82-21.2 248.22-22.2L248.22-22.2Q248.27-22.65 248.42-23.28 248.57-23.9 249.72-25.8L249.72-25.8Q249.72-26.2 250.47-26.8L250.47-26.8Q250.47-27 250.87-27.4 251.27-27.8 251.77-28.4L251.77-28.4Q252.47-29.25 253.32-29.65 254.17-30.05 254.92-30.6ZM276.92-13.2L277.22-13.5Q277.32-13.6 278.39-13.73 279.47-13.85 280.92-14.6L280.92-14.6Q280.97-14.6 280.87-15.8L280.87-15.8Q280.72-17.9 280.62-18.8L280.62-18.8Q280.52-20 280.42-20.5L280.42-20.5Q280.42-21.45 279.67-24.45L279.67-24.45 277.47-17Q276.77-13.9 276.92-13.2L276.92-13.2ZM270.52-11.45L270.47-12.05 270.77-14.25Q270.77-14.9 270.97-15.55L270.97-15.55Q270.97-16.4 271.82-18.1L271.82-18.1Q271.82-18.2 272.27-19.4L272.27-19.4Q272.27-19.5 273.22-22.35L273.22-22.35 273.82-23.8Q273.82-24 274.07-24.58 274.32-25.15 274.44-25.73 274.57-26.3 274.77-26.85L274.77-26.85Q275.47-28.2 276.02-29.15L276.02-29.15Q277.07-31.15 279.92-30.95L279.92-30.95 281.52-30.8Q283.02-30.4 283.82-29.95L283.82-29.95Q284.97-29.5 285.37-28.98 285.77-28.45 285.72-27.25L285.72-27.25Q285.77-26.65 286.02-22.05 286.27-17.45 286.27-17.4L286.27-17.4 286.52-15.25Q286.52-14.95 287.62-8.05L287.62-8.05 288.72-4.55Q289.72-1.75 289.79-1.63 289.87-1.5 290.22-0.55L290.22-0.55Q290.77 1.1 289.27 1.65L289.27 1.65Q287.92 1.85 287.27 1.4L287.27 1.4Q287.02 1.4 286.12 0.95L286.12 0.95Q286.02 0.7 285.54 0.48 285.07 0.25 284.92 0.1L284.92 0.1Q284.37-0.05 283.92-1.45L283.92-1.45Q283.77-1.55 283.37-2.25L283.37-2.25Q283.02-2.95 283.17-3.4L283.17-3.4Q282.82-3.85 282.82-5.25L282.82-5.25Q282.37-6 282.37-7.6 282.37-9.2 281.87-10.1L281.87-10.1Q279.32-8.95 276.42-8.85L276.42-8.85Q275.87-8.85 275.87-8.65L275.87-8.65Q275.87-8.2 275.57-7.05L275.57-7.05 274.72-1.55Q275.22 2.15 273.82 2.35L273.82 2.35Q273.42 2.35 272.49 2.55 271.57 2.75 270.97 2.2L270.97 2.2Q269.82 1.55 269.34 0.88 268.87 0.2 268.92-0.65L268.92-0.65Q268.97-1.35 269.17-3.65L269.17-3.65Q269.27-3.75 269.24-4.78 269.22-5.8 269.37-6.35L269.37-6.35 270.17-9.45Q270.32-9.55 270.57-10.95L270.57-10.95Q270.52-11.05 270.52-11.45L270.52-11.45ZM301.02-23.85L301.02-23.85Q301.02-21.5 300.37-17.6L300.37-17.6Q300.67-17.85 301.27-18.45L301.27-18.45Q301.97-19.15 304.07-20.5L304.07-20.5 304.82-21.05 306.32-21.8 307.97-22.9Q307.87-23 308.22-23.4L308.22-23.4Q309.17-25.05 309.32-26.3L309.32-26.3Q309.32-26.95 309.12-27.28 308.92-27.6 307.87-27.7L307.87-27.7Q307.77-27.8 306.92-27.95L306.92-27.95Q304.87-27.95 304.19-27.7 303.52-27.45 303.17-27.45L303.17-27.45 302.42-27.25 301.57-27.2 301.37-25.85Q301.37-25.8 301.17-24.85L301.17-24.85Q301.17-24.5 301.02-23.85ZM310.37-0.95L309.52-1.75Q308.77-2 307.42-3.2L307.42-3.2Q307.17-3.55 306.12-4.4L306.12-4.4Q305.12-5 303.62-6.75L303.62-6.75Q303.62-6.8 303.27-7.55L303.27-7.55Q302.67-8.1 302.12-9.75L302.12-9.75Q302.07-9.8 301.97-9.95 301.87-10.1 301.64-10.43 301.42-10.75 301.17-11.55 300.92-12.35 300.17-13.3L300.17-13.3 299.97-13.3Q299.97-13 299.82-12.45L299.82-12.45 299.82-11.45 299.52-8.55 298.77-3.7Q298.97-3.3 298.77-2.35L298.77-2.35Q298.77-1.95 298.52-1.05 298.27-0.15 297.77 0.15 297.27 0.45 295.82 0.25L295.82 0.25Q295.32 0.05 294.42-1.15L294.42-1.15Q294.07-1.3 293.42-2.75L293.42-2.75Q293.52-3.65 293.47-3.88 293.42-4.1 293.42-4.45 293.42-4.8 293.47-4.9L293.47-4.9Q293.37-4.8 293.47-5.9L293.47-5.9 293.47-6.25Q293.47-6.45 293.77-7.85L293.77-7.85Q293.77-8.9 293.79-9.33 293.82-9.75 294.12-10.35L294.12-10.35 294.12-11.7 294.17-13.05Q294.47-13.95 294.47-15.15L294.47-15.15Q294.57-15.75 294.59-16.32 294.62-16.9 294.77-17.6L294.77-17.6Q294.77-18.7 294.92-19.28 295.07-19.85 295.09-20.08 295.12-20.3 295.17-20.8L295.17-20.8 295.52-22.95 295.67-26.1 295.07-26.5Q293.47-27.15 292.82-27.8L292.82-27.8Q292.57-27.95 292.64-28.58 292.72-29.2 293.32-29.6L293.32-29.6Q294.02-29.6 295.37-30.45L295.37-30.45Q295.52-30.45 296.27-30.95L296.27-30.95 297.17-31.25Q297.32-31.4 298.42-31.8L298.42-31.8Q298.67-31.8 299.22-32.08 299.77-32.35 300.37-32.4L300.37-32.4Q300.87-32.45 302.39-32.68 303.92-32.9 304.97-32.6L304.97-32.6Q305.62-32.6 306.37-32.35L306.37-32.35Q307.57-32.35 309.07-31.55L309.07-31.55Q309.42-31.55 310.07-31.1L310.07-31.1 311.02-30.65 312.27-29.65Q313.32-28.8 314.17-27.5L314.17-27.5Q314.77-26.9 314.62-25.95L314.62-25.95Q313.92-21.6 308.57-17.3L308.57-17.3 307.12-16.65 304.67-15.1Q305.92-13.35 307.92-11L307.92-11Q308.07-10.65 309.07-9.6L309.07-9.6 310.77-7.5 311.37-6.6 312.72-5.1Q312.87-4.75 313.57-4.25L313.57-4.25 314.42-3.45Q315.57-2.55 315.37-1.4 315.17-0.25 313.97-0.2L313.97-0.2 312.77-0.3 310.37-0.95ZM324.61-11.35L323.76-11.65 323.76-9.65Q323.76-6.55 324.11-6.2L324.11-6.2Q324.06-6.15 324.36-5L324.36-5Q324.36-4.6 324.76-3.75L324.76-3.75Q324.76-3.5 326.16-2.55L326.16-2.55Q326.76-2.55 329.11-3.55L329.11-3.55 332.66-4.9Q333.31-5.1 333.89-4.73 334.46-4.35 334.59-3.43 334.71-2.5 334.54-2.1 334.36-1.7 333.69-1.1 333.01-0.5 332.81-0.25 332.61 0 332.06 0.28 331.51 0.55 330.84 0.85 330.16 1.15 329.91 1.3L329.91 1.3Q327.96 2.2 326.91 2L326.91 2Q326.26 2 325.59 1.75 324.91 1.5 324.84 1.53 324.76 1.55 324.44 1.48 324.11 1.4 323.81 1.33 323.51 1.25 322.26 1L322.26 1Q322.26 0.8 321.56 0.6L321.56 0.6 320.21-0.5Q319.86-0.7 319.46-1.75L319.46-1.75 319.01-2.5Q318.81-2.65 318.46-3.65L318.46-3.65Q318.26-3.9 318.21-4.55L318.21-4.55Q317.96-5.1 317.96-6.1L317.96-6.1Q317.76-6.35 317.51-8L317.51-8Q317.16-10.15 317.46-11.85L317.46-11.85Q317.46-12.8 317.81-13.7L317.81-13.7Q317.86-14.1 317.91-14.5L317.91-14.5Q318.16-15.8 318.26-16.5L318.26-16.5Q318.06-17.2 318.91-19.85L318.91-19.85Q318.91-20.25 319.24-21.03 319.56-21.8 319.61-22.65L319.61-22.65 320.01-23.6Q320.01-24 320.76-26.55L320.76-26.55Q321.16-27.5 321.16-27.65L321.16-27.65 322.41-30.3 323.01-31.1Q323.36-31.45 324.06-31.7L324.06-31.7Q324.36-31.95 325.66-31.65L325.66-31.65Q326.46-31.35 326.76-31.05L326.76-31.05Q327.11-30.9 327.61-30.9L327.61-30.9 331.46-31.15Q332.91-31.05 333.41-30.83 333.91-30.6 334.39-30.05 334.86-29.5 334.74-28.95 334.61-28.4 334.31-28.1L334.31-28.1Q333.66-27.55 331.91-26.8L331.91-26.8Q328.86-25.15 328.61-25.05L328.61-25.05 327.41-24.5Q326.66-24 326.46-23.45L326.46-23.45Q324.91-17.85 324.79-17.23 324.66-16.6 324.64-16.48 324.61-16.35 324.61-16.3L324.61-16.3 325.61-16.4Q327.81-17.1 328.21-16.85L328.21-16.85Q328.41-16.85 328.76-17L328.76-17Q330.61-17.65 332.01-17.55L332.01-17.55Q332.26-17.7 332.56-17.35 332.86-17 333.01-16.5L333.01-16.5Q333.31-15.25 332.26-14.55L332.26-14.55Q330.16-13.15 327.26-12.3L327.26-12.3Q326.31-11.55 324.61-11.35L324.61-11.35Z" opacity="1" transform="matrix(1,0,0,1,0,0)" fill="#f0ebeb" class="undefined-text-0" data-fill-palette-color="quaternary" id="text-0"></path></svg></g></svg></g></svg></g></svg></g><g><svg viewBox="0 0 130.38142552510348 118.26640079246292" height="118.26640079246292" width="130.38142552510348"><g><svg xmlns="http://www.w3.org/2000/svg" xmlns:xlink="http://www.w3.org/1999/xlink" version="1.1" x="0" y="0" viewBox="5.001404285430908 9.178999900817871 89.9986572265625 81.63599395751953" enable-background="new 0 0 100 100" xml:space="preserve" height="118.26640079246292" width="130.38142552510348" class="icon-icon-0" data-fill-palette-color="accent" id="icon-0"><path d="M94.294 51.007c-2.905-4.205-9.241-0.065-15.946 4.318-1.861 1.217-3.746 2.391-5.586 3.405 0.715 0.273 1.297 0.609 1.76 0.951 1.619 1.203 2.59 3.064 2.66 5.103 0.146 4.348-3.422 6.58-6.933 8.19-3.472 1.594-9.032 1.771-13.938 1.926-1.01 0.033-1.998 0.064-2.94 0.105-4.799 0.221-8.357 1.553-8.394 1.564-0.162 0.061-0.327 0.09-0.491 0.09-0.559 0-1.086-0.338-1.295-0.891-0.271-0.715 0.085-1.515 0.799-1.785 0.16-0.063 3.986-1.504 9.256-1.744 0.956-0.043 1.956-0.074 2.979-0.107 4.645-0.146 9.906-0.313 12.871-1.674 3.902-1.793 5.395-3.355 5.317-5.58-0.024-0.699-0.257-2.018-1.543-2.975-0.834-0.619-2.287-1.187-4.706-1.012-0.998 0.364-1.96 0.639-2.863 0.776-7.503 1.154-13.994 0.494-19.829-2.633-0.453-0.244-1.023-0.595-1.699-1.007-5.716-3.495-19.102-11.686-31.958 1.173h-0.001c0 0.002-0.001 0.002-0.001 0.002l-6.098 6.151c-0.497 0.502-0.795 1.406-0.694 2.104l1.838 12.565 1.114 7.615c0.194 1.324 0.862 1.723 1.244 1.844 0.112 0.035 0.257 0.064 0.431 0.064 0.42 0 0.997-0.172 1.646-0.859 0.019-0.02 1.883-1.985 4.095-3.727 2.801-2.207 5.226-3.281 7.412-3.281 3.352 0 7.74 1.924 12.389 3.961 5.537 2.428 11.814 5.176 17.606 5.176 18.167 0 33.382-16.43 39.173-27.473C94.9 57.757 95.771 53.145 94.294 51.007z" fill="#374151" data-fill-palette-color="accent"></path><path d="M41.255 49.179h31.49c2.345 0 4.255-1.909 4.255-4.255v-31.49c0-2.346-1.91-4.255-4.255-4.255h-31.49C38.91 9.179 37 11.088 37 13.434v31.49C37 47.27 38.91 49.179 41.255 49.179zM44.753 24.948c0-0.458 0.373-0.829 0.831-0.829h6.357v-6.357c0-0.459 0.371-0.829 0.83-0.829h8.459c0.459 0 0.828 0.37 0.828 0.829v6.357h6.358c0.458 0 0.83 0.371 0.83 0.829v8.459c0 0.459-0.372 0.83-0.83 0.83h-6.358v6.358c0 0.459-0.369 0.829-0.828 0.829h-8.459c-0.459 0-0.83-0.37-0.83-0.829v-6.358h-6.357c-0.458 0-0.831-0.371-0.831-0.83V24.948z" fill="#374151" data-fill-palette-color="accent"></path></svg></g></svg></g></svg></g></svg><rect width="395.52" height="86.99325321927914" fill="none" stroke="none" visibility="hidden"></rect></g></svg></g></svg>